# xmcd
#
# Track frame offsets: 
#        150
#        15250
#        28668
#        55680
#        73368
#        88593
#        115412
#        144242
#        180223
#        204005
#
# Disc length: 2902 seconds
#
# Revision: 0
# Processed by: cddbd v1.5.2PL0 Copyright (c) Steve Scherf et al.
# Submitted via: ExactAudioCopyFreeDBPlugin 1.0
#
DISCID=770b540a
DTITLE=CadiJo - Blues Au Comptoir
DYEAR=2001
DGENRE=Blues
TTITLE0=Big Walter
TTITLE1=Du Swing Dans Le Blues
TTITLE2=J'ai Le Blues,J'suis Pas Content
TTITLE3=Pili Pili
TTITLE4=Music's Hot
TTITLE5=Vagabond Blues
TTITLE6=I Had A Dream
TTITLE7=Mighty Long Time
TTITLE8=Sabine
TTITLE9=Have A Good Time
EXTD=
EXTT0=
EXTT1=
EXTT2=
EXTT3=
EXTT4=
EXTT5=
EXTT6=
EXTT7=
EXTT8=
EXTT9=
PLAYORDER=
